<?xml version="1.0" encoding="UTF-8"?>
<svg id="Vrstva_2" data-name="Vrstva 2" xmlns="http://www.w3.org/2000/svg" width="1782" height="1508" viewBox="0 0 1782 1508">
  <defs>
    <style>
      .cls-1 {
        stroke: #000;
        stroke-miterlimit: 10;
        stroke-width: 16px;
      }

      .cls-1, .cls-2 {
        fill: none;
      }
    </style>
  </defs>
  <g id="Vrstva_1-2" data-name="Vrstva 1">
    <g>
      <path class="cls-1" d="M934.5,74.5c-100.47-.12-265.28-.23-362.37.29-10.28.35-19.97,1.74-25.63,10.01-18.71,34.41,10.9,106.37-45.71,113.43-25.93,2.97-58.2,5.07-80.41-6.83-44.97-35.14,9.72-91.1-89.27-88.85-21.17-.06-43.31-.24-64.28.23-20.44.53-43.47,2.53-50.26,24.62-7.04,20.93-2.47,47.48-9.74,68.75-27.12,63.79-131.77-16.57-128.16,90.41.59,22.76-2.29,47.72,12.46,64.61,28.84,25.82,82.27,1.29,111.77,25.32,19.05,21.42,10.78,65.68,12.39,93.44.57,47.12-13.62,60.12-59.33,60.35-24.06,1.14-55.62-1.26-68.06,22.05-9.76,21.76-10.63,56.37.4,79.35,12.07,18.98,33.41,17.63,56.61,18.72,26.51,2.79,89.09-8.99,98.65,19.33,8.8,53.18,1.68,115.48,3.77,169.56.11,33.63-.5,56.08-41.17,56.49-101.73,4.97-143.93-22.46-127.01,108.17,11.06,55.31,81.28,93.27,112.01,139.23,17.18,26.2-14.9,47.29-32.52,66.96-15.18,15.09-32.83,32.43-47.86,47.52-24.45,22.3-43.88,53.58-43.24,86.35-.37,17.93,3.62,40.61,24.5,44.47,68.57,5.5,167.88.32,236.79,2.04,12.49,0,27.36.23,38.31-4.24,23.14-10.15,20.94-44.22,49.39-59.94,20.58-13.91,49.68-18.39,72.86-27.35,23.01-7.1,39.06-25.12,40.14-49.37,2.23-27.57,2.53-60.75-1.16-89.16-3.78-63.12-124.23-111.41-91.35-159.11,17.14-24.26,44.25-51.25,71-67,25.94-13.97,56.59-11.92,86.69-12.34,24.6-1.76,56.99,5.02,73.51-13.21,6.88-10.13,6.49-23.95,7.05-36.5.24-46.13.27-102.81-.1-149.56-.67-17.44-.3-35.48-14.53-45.64-61.97-31.55-157.07-62.66-224.81-91.38-45.45-16.07-55.35-26.81-55.05-76.41,1.84-27.91-8.35-78.48,21.33-90.71,55.98-13.67,130.07-15.65,186.19-24.04,15.77-2.25,33.25-2.91,46.53-11.46,25.14-20.51,25.07-61.54,35.66-91.72,7.77-33.67,29.62-53.11,64.27-52.43,84.36-5.26,53.53,96.05,81.32,144.94,23.05,33.77,75.2,24.38,108.53,39.55,27.11,10.86,25.56,36.43,26.27,64.32-.74,32.82,2.18,72.52-2.38,104.57-10.67,58.17-115.8,4.71-138.25,49.32-5.32,13.64-4.39,30.84-4.74,45.9.22,36.98-.68,79.59.45,116.98-1.23,44.43,33.63,47.74,70.11,55.3,28.72,7.35,66.34,6.97,83.45,33.89,11.84,23.24,12.45,61.04-3.03,81.08-22.09,21.91-59.08,12.35-87.16,16.27-76.86,2.13-22.77,100.48-66.63,135.68-34.53,31.57-123.03,36.38-132.14,86.19-5.13,33.16-1.98,74.78-2.73,108.85.88,26.19-2.42,57.36,31.75,57.39,49,2.16,103.19.16,155.76.83,30.08-2.53,75.62,9.41,93.14-20.21,33.1-59.38,64.17-128.72,94.98-188.57,21.5-49.43,39.92-47.05,88.59-47.21,30.5,0,62.99-.12,93.33.09,26.74.92,51.37-1.53,52.34,30.86,2.01,50.28.12,112.91.72,165.2.93,51.18-8.89,79.08,53.95,77.59,28.62-1.41,64.91,5.99,87.76-11.24,15.62-18.97,10.01-45.33,11.42-70.41,1.77-26.69-4.64-62.82,8.07-84.85,19.39-26.96,100.05-8.27,135.11-19.65,39.54-10.94,66.88-51.02,96.85-77.79,18.49-20.89,52.74-42.28,32.35-70.44-27.5-34.07-65.91-66.29-96.28-98.93-27.16-24.69-31.31-53.27-30.21-88.78-.3-37.89.67-83.21-.8-119.88-.42-31.45-18.62-38.59-45.02-39.18-22.5-.85-49.78-1.06-73.24.26-39.05.65-41.77,23.24-41.51,57.83-.2,29.39,0,69.12-.13,98.82-.4,18.56.78,34.24-6.57,48.57-12.08,17.93-38.2,14.53-57.68,15.82-25.31-.96-51.97,3.41-71.38-12.81-24.53-25.06-2.1-74.74-31.95-96.02-52.81-27.77-141.75,25.8-137.05-72.31-1.75-45.73,11.6-75.05,45.15-105.79,33.8-30.84,62.96-71.82,106.34-89.73,40.71-19.45,132.55-15.68,142.44-68.25-.22-59.31-77.19-68.32-116.03-95.19-25.89-14.45-27.21-41.94-27.2-69.78-.12-16.18-.08-35.87-.1-53.87,1.82-26.55-5.31-64.14,9.19-82.38,9.8-8.48,25.83-7.18,39.09-7.72,65.99.64,153.39-1.56,219.76.9,25.64.67,26.16,22.92,26.13,45.65.06,38.98.13,92.65.05,132.46.42,17.31-1.23,44.52,3.79,57.38,3.87,13.15,19.56,17.31,32.53,18.29,27.32,5.27,102.02-8.93,112.64,19.25,4.89,13.47,3.94,29.86,4.18,44.64-.33,64.68.18,138.98-.1,203.37"/>
      <rect class="cls-2" width="1782" height="1508"/>
    </g>
  </g>
</svg>