<?xml version="1.0" encoding="UTF-8"?>
<svg id="Vrstva_2" data-name="Vrstva 2" xmlns="http://www.w3.org/2000/svg" width="386.35" height="386.35" viewBox="0 0 386.35 386.35">
  <defs>
    <style>
      .cls-1 {
        fill: none;
        stroke: #000;
        stroke-miterlimit: 10;
      }
    </style>
  </defs>
  <g id="Vrstva_1-2" data-name="Vrstva 1">
    <rect class="cls-1" x=".5" y=".5" width="385.35" height="385.35"/>
    <polygon class="cls-1" points="363.18 23.18 363.18 363.18 23.18 363.18 23.18 23.18 158.58 23.18 158.58 227.78 227.78 227.78 227.78 23.18 363.18 23.18"/>
    <rect class="cls-1" x="159.58" y="23.18" width="67.2" height="203.6"/>
    <path d="M319.58,45.18c9.15,0,16.6,7.45,16.6,16.6v44.81c0,9.15-7.45,16.6-16.6,16.6h-44.81c-9.15,0-16.6-7.45-16.6-16.6v-44.81c0-9.15,7.45-16.6,16.6-16.6h44.81M319.58,44.18h-44.81c-9.72,0-17.6,7.88-17.6,17.6v44.81c0,9.72,7.88,17.6,17.6,17.6h44.81c9.72,0,17.6-7.88,17.6-17.6v-44.81c0-9.72-7.88-17.6-17.6-17.6h0Z"/>
  </g>
</svg>